<mxfile host="app.diagrams.net" modified="2023-05-06T00:40:49.335Z" agent="Mozilla/5.0 (Windows NT 10.0; Win64; x64) AppleWebKit/537.36 (KHTML, like Gecko) Chrome/112.0.0.0 Safari/537.36" etag="Ewa5U9IfgpByHB4VcqEh" version="21.2.3" type="device">
  <diagram name="Page-1" id="qszKbUcZKW7Ho4YtYshX">
    <mxGraphModel dx="400" dy="1392" grid="1" gridSize="10" guides="1" tooltips="1" connect="1" arrows="1" fold="1" page="1" pageScale="1" pageWidth="827" pageHeight="1169" math="0" shadow="0">
      <root>
        <mxCell id="0" />
        <mxCell id="1" parent="0" />
        <mxCell id="0fRwpTmuVLSvKfW3I3J--5" value="Create Root" style="rounded=0;whiteSpace=wrap;html=1;" vertex="1" parent="1">
          <mxGeometry x="354" y="-1140" width="120" height="60" as="geometry" />
        </mxCell>
        <mxCell id="0fRwpTmuVLSvKfW3I3J--6" value="" style="rounded=0;whiteSpace=wrap;html=1;" vertex="1" parent="1">
          <mxGeometry x="354" y="-1040" width="120" height="60" as="geometry" />
        </mxCell>
      </root>
    </mxGraphModel>
  </diagram>
</mxfile>
